<svg width="1200" height="1233" viewBox="0 0 1200 1233" fill="none" xmlns="http://www.w3.org/2000/svg">
<mask id="mask0_684_1656" style="mask-type:alpha" maskUnits="userSpaceOnUse" x="0" y="0" width="1200" height="1233">
<rect width="1200" height="1233" fill="#D9D9D9"/>
</mask>
<g mask="url(#mask0_684_1656)">
<g filter="url(#filter0_f_684_1656)">
<ellipse cx="601.5" cy="647" rx="479.5" ry="479" fill="#602A9A"/>
<path d="M1080.5 647C1080.5 911.268 866.045 1125.5 601.5 1125.5C336.955 1125.5 122.5 911.268 122.5 647C122.5 382.732 336.955 168.5 601.5 168.5C866.045 168.5 1080.5 382.732 1080.5 647Z" stroke="white"/>
</g>
<g filter="url(#filter1_f_684_1656)">
<circle cx="602.5" cy="645.5" r="330.5" fill="#622A9A"/>
<circle cx="602.5" cy="645.5" r="330" stroke="white"/>
</g>
<g opacity="0.3">
<circle opacity="0.1" cx="600" cy="668" r="599.5" stroke="white"/>
<circle opacity="0.15" cx="600" cy="668" r="464.5" stroke="white" stroke-dasharray="4 4"/>
<circle opacity="0.2" cx="600" cy="668" r="327.5" stroke="white"/>
<circle cx="261.478" cy="390.083" r="10.4554" stroke="#4D3763"/>
<circle cx="261.478" cy="390.083" r="3.88217" fill="#2A193C" stroke="#4D3763"/>
</g>
</g>
<defs>
<filter id="filter0_f_684_1656" x="-412" y="-366" width="2027" height="2026" filterUnits="userSpaceOnUse" color-interpolation-filters="sRGB">
<feFlood flood-opacity="0" result="BackgroundImageFix"/>
<feBlend mode="normal" in="SourceGraphic" in2="BackgroundImageFix" result="shape"/>
<feGaussianBlur stdDeviation="267" result="effect1_foregroundBlur_684_1656"/>
</filter>
<filter id="filter1_f_684_1656" x="48" y="91" width="1109" height="1109" filterUnits="userSpaceOnUse" color-interpolation-filters="sRGB">
<feFlood flood-opacity="0" result="BackgroundImageFix"/>
<feBlend mode="normal" in="SourceGraphic" in2="BackgroundImageFix" result="shape"/>
<feGaussianBlur stdDeviation="112" result="effect1_foregroundBlur_684_1656"/>
</filter>
</defs>
</svg>
