<svg width="25" height="25" viewBox="0 0 25 25" fill="none" xmlns="http://www.w3.org/2000/svg">
<path d="M15.1721 21.6292C14.6103 16.0112 12.3631 12.9213 5.90245 12.3596C1.28427 16.1784 -0.0557357 15.835 0.00357678 25H12.3631C13.6813 24.8913 15.1721 24.7191 15.1721 24.4382V21.6292Z" fill="white"/>
<path d="M15.1704 3.37079C14.6086 8.98876 12.3614 12.0787 5.90074 12.6404C1.28256 8.82159 -0.0574447 9.16501 0.00186779 0H12.3614C13.6796 0.108666 15.1704 0.280899 15.1704 0.561798V3.37079Z" fill="white"/>
<path d="M15.1704 21.6294L14.6086 24.7192C20.5075 23.8765 24.4401 18.5395 24.4401 12.3597C18.5412 12.9215 16.0131 14.6069 15.1704 21.6294Z" fill="white"/>
<path d="M15.1704 3.37089L14.6086 0.281006C20.5075 1.1237 24.4401 6.46078 24.4401 12.6406C18.5412 12.0788 16.0131 10.3934 15.1704 3.37089Z" fill="white"/>
</svg>
