<svg width="51" height="51" viewBox="0 0 51 51" fill="none" xmlns="http://www.w3.org/2000/svg">
<path d="M31.4187 43.3933C30.2924 32.382 25.787 26.3259 12.8339 25.2247C3.57484 32.7097 0.888246 32.0366 1.00716 50H25.787C28.4299 49.787 31.4187 49.4494 31.4187 48.8989V43.3933Z" stroke="#D51941" stroke-width="1.4"/>
<path d="M31.4153 7.60674C30.289 18.618 25.7835 24.6741 12.8305 25.7753C3.57142 18.2903 0.884829 18.9634 1.00374 1H25.7835C28.4264 1.21299 31.4153 1.55056 31.4153 2.10112V7.60674Z" stroke="#D51941" stroke-width="1.4"/>
<path d="M31.4152 43.393L30.2888 49.4492C42.1155 47.7975 50 37.3369 50 25.2245C38.1733 26.3256 33.1047 29.629 31.4152 43.393Z" stroke="#D51941" stroke-width="1.4"/>
<path d="M31.4152 7.60696L30.2888 1.55078C42.1155 3.20247 50 13.6631 50 25.7755C38.1733 24.6744 33.1047 21.371 31.4152 7.60696Z" stroke="#D51941" stroke-width="1.4"/>
</svg>
